<?xml version="1.0" standalone="no"?>
<!DOCTYPE svg PUBLIC "-//W3C//DTD SVG 1.1//EN" "http://www.w3.org/Graphics/SVG/1.1/DTD/svg11.dtd" >
<svg xmlns="http://www.w3.org/2000/svg">
<metadata>Generated by IcoMoon</metadata>
<defs>
<font id="icomoon" horiz-adv-x="1024">
<font-face units-per-em="1024" ascent="960" descent="-64" />
<missing-glyph horiz-adv-x="1024" />
<glyph unicode="&#x20;" horiz-adv-x="512" d="" />
<glyph unicode="&#xe900;" glyph-name="gift" d="M992 550c-4.608-13.12-14.32-20.56-26.528-26.672-143.344-71.888-286.624-144-429.664-216.512-16.832-8.528-31.328-8.272-48.096 0.256-142.16 72.048-284.56 143.648-427.040 215.056-12.224 6.128-22.736 13.232-28.672 25.872 0 55.344 0 110.672 0 166 4.32 9.456 9.344 18.096 19.312 23.088 52.080 26.096 104.048 52.368 155.984 78.704 5.328 2.688 9.632 3.6 15.616 0.544 60.192-30.672 120.608-60.928 180.944-91.328 2.816-1.408 5.472-3.136 9.232-5.312-4.416-2.368-7.552-4.112-10.736-5.728-51.408-25.904-102.752-51.952-154.336-77.552-6.336-3.152-8.496-6.672-8.448-13.632 0.304-48.32 0.24-96.656 0.032-144.976-0.016-5.936 1.248-9.488 7.12-12.368 27.52-13.392 54.752-27.44 82.112-41.152 2.512-1.264 5.248-2.080 8.784-3.44 0 6.016 0 10.672 0 15.312-0.016 46 0.048 91.984-0.192 137.984-0.032 5.936 1.264 9.472 7.088 12.368 53.344 26.528 106.56 53.328 159.648 80.352 5.696 2.912 9.968 2.8 15.632-0.080 52.512-26.72 105.12-53.232 157.872-79.408 6.592-3.28 8.992-6.912 8.944-14.336-0.352-46.992-0.208-93.984-0.192-140.976 0-3.488 0.304-6.976 0.48-11.264 3.504 1.472 5.952 2.352 8.272 3.52 27.056 13.616 54 27.44 81.2 40.736 5.92 2.912 8.128 6.144 8.096 12.816-0.304 48.32-0.32 96.64 0 144.976 0.048 7.024-2.32 10.496-8.576 13.584-50.416 24.944-100.624 50.272-150.88 75.488-4.592 2.304-9.136 4.672-14.704 7.52 2.4 1.552 3.424 2.336 4.528 2.912 62.704 31.616 125.36 63.312 188.24 94.56 3.264 1.632 9.008 0.768 12.56-0.992 49.68-24.864 99.056-50.432 148.928-74.96 12.608-6.208 22.512-13.648 27.44-26.944 0-54.688 0-109.344 0-164.016zM504-64c-101.216 58.272-202.432 116.544-303.632 174.816-34.336 19.776-68.576 39.696-102.976 59.344-12.72 7.28-19.312 17.776-19.312 32.496 0.032 89.312 0.032 178.624 0.048 267.936 0 1.328 0.16 2.656 0.336 5.472 3.408-1.568 6.288-2.816 9.056-4.224 15.456-7.76 30.672-16.064 46.448-23.152 7.776-3.504 10.448-7.712 10.4-16.4-0.416-67.952-0.192-135.952-0.368-203.952-0.016-5.808 1.056-9.6 6.672-12.848 107.072-61.552 214-123.344 320.96-185.104 1.68-0.976 3.456-1.712 7.056-3.504 0 82.992 0 164.544 0 247.616 22.8-10.32 43.904-11.968 66.24 1.088 0-83.632 0-165.328 0-248.976 4.976 2.608 8.128 4.144 11.168 5.888 104.96 60.576 209.856 121.2 314.912 181.6 6.544 3.744 9.184 7.664 9.136 15.504-0.368 65.328 0.336 130.656-0.64 195.952-0.208 14.24 3.92 21.344 16.832 26.608 16.528 6.72 32.128 15.68 49.136 24.16 0.208-3.056 0.416-4.912 0.416-6.752 0.032-88.64-0.064-177.28 0.080-265.936 0.032-15.168-6.32-25.968-19.344-33.504-132.096-76.16-264.128-152.4-396.208-228.608-3.408-1.952-6.96-3.68-10.416-5.536-5.328 0.016-10.672 0.016-16 0.016zM524 960c9.376-3.632 18.752-7.248 29.312-11.328-15.376-20.32-29.552-39.008-44.432-58.688-14.496 18.4-28.56 36.224-43.952 55.76 12.352 5.024 23.712 9.632 35.072 14.256 8 0 16 0 24 0zM512.064 843.36c2.272 4.112 4.048 7.168 5.664 10.304 10.752 20.864 23.536 40.256 41.040 56.192 32.576 29.664 72.448 33.472 107.104 10.288 35.392-23.68 49.68-66.464 35.168-106.272-10.176-27.968-29.68-48.672-52.96-66.16-39.648-29.824-85.104-47.792-131.728-63.136-2.8-0.912-6.688-0.352-9.488 0.864-47.776 20.752-94.096 44.064-134.32 77.808-20.096 16.848-37.952 35.728-47.76 60.592-12.032 30.496-7.424 58.352 15.744 82 24.032 24.528 52.48 33.568 85.568 20.784 31.472-12.176 52.704-36.48 71.984-62.848 4.64-6.336 8.912-12.96 13.984-20.416zM544.752 749.344c35.888 15.616 70.64 31.504 95.808 62.080 5.152 6.304 9.36 13.872 12.208 21.52 6.24 16.624-0.416 34.208-15.568 44.48-14.224 9.616-27.952 8.272-42.688-4.672-4.48-3.92-8.896-8.224-12.224-13.12-22.112-32.752-42.576-66.176-37.536-110.288zM490.272 749.664c-1.088 10.752-0.064 20.32-3.216 28.224-11.504 28.944-27.408 55.584-49.216 78-8.416 8.672-18.688 15.984-29.184 22.080-11.488 6.672-21.792 1.264-30.544-7.216-8.688-8.448-11.216-17.008-5.088-27.984 6.080-10.896 13.408-21.584 22.192-30.368 26.88-26.928 59.84-45.040 95.056-62.736z" />
<glyph unicode="&#xe901;" glyph-name="close" d="M892.672 937.376c30.016 30.048 78.528 30.24 108.736 0 30.016-30.016 30.176-78.56 0-108.736l-870.080-870.080c-30.016-30.048-78.464-30.24-108.736 0-30.048 30.016-30.208 78.592 0 108.736l870.080 870.080zM131.328 937.376c-30.016 30.048-78.464 30.24-108.736 0-30.048-30.016-30.208-78.56 0-108.736l870.048-870.080c30.016-30.048 78.528-30.24 108.736 0 30.016 30.016 30.176 78.592 0 108.736l-870.048 870.080z" />
<glyph unicode="&#xe902;" glyph-name="customer" d="M74.736 508.224c0 19.888-1.408 38.288 0.224 56.384 8.4 92.368 41.216 175.088 101.84 245.664 75.376 87.76 172.032 133.632 286.96 140.976 146.080 9.328 270.016-39.232 369.152-146.96 61.92-67.312 93.024-148.512 97.136-239.904 0.704-15.536 0.096-31.136 0.096-48.512-10.56 9.696-19.776 17.616-28.24 26.288-2.176 2.24-2.336 6.8-2.672 10.352-2.144 23.696-4.064 47.408-6.032 70.992-174.048-19.44-307.808 42-403.072 188.864-2.176-3.28-4.512-6.736-6.784-10.224-66.336-102.32-160.080-162.224-280.624-179.12-25.184-3.536-51.104-2.24-76.688-2.288-7.344 0-10.352-1.6-11.264-9.008-2.72-22-5.84-43.952-9.28-65.84-0.672-4.304-2.656-9.008-5.504-12.224-7.648-8.528-16.096-16.336-25.248-25.44zM840.112 220.928c-20.064-0.336-38.272-1.328-56.432-0.736-13.328 0.432-17.84 6.272-17.872 19.776-0.080 41.344-0.032 82.688-0.016 124.016 0 52.304 0 104.56 0 156.864 0 17.12 5.216 22.24 22.32 23.712 71.12 6.208 133.616-44.144 151.168-115.232 17.36-70.128 0.752-131.072-55.152-179.408-2.592-2.256-4.416-5.936-5.552-9.312-47.36-141.696-144.56-225.248-292-249.776-7.168-1.184-7.472-5.568-9.104-10.176-9.776-27.776-36.608-43.44-67.584-39.424-27.248 3.536-48.848 27.456-50.72 56.176-1.84 28.272 16.384 53.84 43.952 61.68 27.68 7.888 56.752-4.656 69.84-30.992 3.184-6.4 6.416-7.888 13.248-6.88 98.448 14.88 174.048 64.72 226.976 148.752 10.464 16.624 18.464 34.784 26.928 50.96zM244.32 382.64c0-46.128 0.016-92.256-0.016-138.352-0.016-16.352-4.448-21.968-20.608-23.024-54.88-3.664-97.408 18.8-128.864 62.992-50.336 70.736-37.36 173.952 28.832 229.072 30.112 25.088 65.040 35.104 104.032 30.752 12.416-1.392 16.56-6.224 16.576-19.984 0.096-47.152 0.048-94.32 0.048-141.456zM495.12 193.696c-47.168 1.168-93.040 20.176-131.52 56.944-7.824 7.488-8.48 16.64-2 23.504 6.88 7.296 15.376 7.152 24.304-1.216 35.728-33.6 77.904-49.52 126.944-46.624 36.704 2.176 68.88 15.728 96.912 39.344 3.664 3.088 6.992 6.576 10.736 9.552 7.616 6.048 15.888 5.44 21.952-1.344 6.144-6.88 5.616-15.504-1.808-22.704-18.8-18.336-40.192-32.848-64.544-42.688-24-9.696-48.96-14.896-80.976-14.768zM666.768 559.152c28.080 0.368 49.44-21.056 49.712-49.856 0.272-29.008-20.88-51.056-49.472-51.6-29.344-0.544-51.808 21.056-52.064 50.048-0.256 29.648 21.296 51.008 51.824 51.408zM372.544 559.088c28.352-0.4 50.704-23.424 49.904-51.392-0.816-28.576-23.968-50.576-52.688-50.032-28.208 0.544-49.856 23.376-49.264 51.952 0.592 27.792 23.824 49.888 52.048 49.472z" />
<glyph unicode="&#xe903;" glyph-name="dl_andr" d="M395.84-64c-13.504 4.496-26.4 9.904-36.224 20.976-11.904 13.424-16.16 29.28-16.272 46.704-0.24 41.984-0.72 83.952-0.592 125.952 0.016 8.016-2.48 9.792-10.176 9.904-18.464 0.256-37.232-0.128-55.28 3.12-24.16 4.336-44.72 30.336-46.624 54.976-0.608 7.856-0.992 15.76-0.992 23.664-0.064 127.84-0.032 255.696-0.032 383.552 0 3.488 0 6.992 0 11.12 188.288 0 375.664 0 564.016 0 0.192-2.736 0.544-5.6 0.544-8.464 0.048-132.224 0.016-264.432 0.080-396.656 0-29.296-11.664-52.128-38.448-64.8-9.696-4.576-21.44-5.52-32.384-6.576-11.072-1.072-22.336-0.624-33.504-0.112-6.848 0.336-8.8-1.952-8.752-8.736 0.272-41.968 0.128-83.952 0.144-125.936 0-18.016-4.56-34.32-16.864-48.128-9.872-11.072-22.896-16.144-36.384-20.56-7.072 0-14.176 0-21.264 0-8.592 3.936-17.952 6.736-25.632 12.032-18.912 13.024-26.8 31.952-26.672 54.784 0.24 42.496-0.112 85.008 0.256 127.536 0.064 7.408-2.272 9.152-9.296 9.024-22.064-0.4-44.144-0.464-66.208 0.016-7.664 0.176-10.272-1.696-10.192-9.856 0.4-42.224 0.048-84.464 0.256-126.704 0.112-22.112-7.040-40.864-25.424-53.68-8.064-5.648-17.84-8.832-26.832-13.136-7.072-0.016-14.16-0.016-21.248-0.016zM691.904 960c5.248-5.12 5.136-10.384 1.664-16.72-12.992-23.6-25.408-47.52-38.512-71.056-2.944-5.264-1.984-7.472 2.88-10.064 42.736-22.848 76.704-55.072 102.256-96.224 22.96-36.976 34.336-77.36 35.984-120.672 0.176-4.368-0.992-6.832-5.808-6.528-2.432 0.16-4.912 0-7.36 0-181.504 0-363.008 0-544.512 0.016-11.248 0-11.456 0.016-10.96 11.072 2.656 59.888 25.68 111.328 65.328 155.664 20.88 23.344 45.472 42.112 73.184 56.704 4.896 2.576 5.824 4.816 2.896 10.064-12.992 23.296-25.312 46.96-38.176 70.32-3.568 6.416-4.56 12 1.264 17.424 2.72 0 5.456 0 8.176 0 3.632-6.032 7.456-11.984 10.848-18.144 11.168-20.256 22.336-40.496 33.152-60.944 2.976-5.616 5.504-6.608 11.968-4.416 19.52 6.64 39.168 13.776 59.36 17.488 55.408 10.192 110.016 6.272 163.12-13.776 17.648-6.656 17.488-6.112 26.592 10.688 12.56 23.184 25.632 46.096 38.48 69.104 2.72 0 5.456 0 8.176 0zM405.792 765.808c-0.16 13.024-11.296 23.872-24.16 23.52-12.768-0.352-22.736-10.96-22.576-24.016 0.16-12.944 10.752-23.792 23.088-23.664 13.008 0.144 23.808 11.184 23.648 24.16zM664.88 765.68c-0.080 13.056-10.32 23.632-22.96 23.696-12.832 0.080-23.824-11.008-23.76-23.968 0.048-13.008 11.12-23.984 24-23.76 12.48 0.24 22.8 11.136 22.72 24.032zM818.992 433.472c0 42.512-0.016 85.024 0.016 127.536 0.016 21.152 6.496 39.152 23.52 53.136 25.44 20.912 65.12 17.888 86.976-7.056 11.2-12.816 15.6-27.728 15.6-44.336 0-86.384-0.272-172.768 0.128-259.168 0.224-47.456-43.36-76.912-84.992-61.728-24.016 8.752-38.576 27.072-40.256 52.688-1.712 26.336-0.832 52.832-0.96 79.248-0.112 19.888-0.032 39.792-0.032 59.68zM204.96 432.416c0-42.24-0.032-84.464 0.016-126.704 0.032-27.312-10.048-49.472-35.248-61.504-41.632-19.84-85.072 8.032-89.824 47.12-0.88 7.28-1.008 14.672-1.024 22.016-0.064 82.016 0.016 164.032-0.096 246.048-0.016 18.016 4.144 34.096 16.384 48.144 23.968 27.504 70.672 27.088 93.952-0.816 11.296-13.552 15.824-28.848 15.824-45.984 0.016-42.752 0.016-85.536 0.016-128.32z" />
<glyph unicode="&#xe904;" glyph-name="dl_googleplay" d="M576.224 450.336c-41.44-50.912-82.24-100.992-123.040-151.072-95.936-117.888-191.936-235.52-287.552-353.6-6.528-8.032-12.896-10.848-22.816-9.28-32.256 5.12-56.096 22.048-72.256 49.952-13.376 23.136-18.656 48.544-18.688 75.104-0.032 62.464-0.032 124.992-0.032 187.392 0 193.088 0.064 386.080-0.064 579.136-0.064 28.288 4.032 55.488 18.112 80.384 16.96 29.824 42.208 47.328 76.8 51.392 10.528 1.216 17.312-1.792 24.032-10.112 116.32-143.68 233.056-287.040 349.536-430.528 18.4-22.496 36.736-45.12 55.968-68.768zM785.248 620.224c42.048-24.576 83.52-47.648 123.808-72.704 14.624-9.12 28.096-21.44 39.104-34.752 32.864-40.064 31.808-91.872-1.472-131.904-7.36-8.768-15.392-17.824-24.96-23.776-43.872-27.296-88.416-53.472-133.408-80.576-47.616 58.656-94.208 115.968-141.344 173.888 46.176 56.672 91.776 112.768 138.272 169.824zM611.552 406.976c42.656-52.448 84.64-104.096 128.064-157.472-159.52-92.192-318.272-183.84-477.024-275.552-0.64 0.672-1.312 1.376-1.856 2.048 116.672 143.232 233.248 286.528 350.816 430.976zM736.928 647.648c-42.080-51.552-83.296-102.208-125.312-153.792-114.368 140.672-227.776 280.256-341.216 419.904 0.64 0.768 1.216 1.536 1.856 2.304 154.496-89.248 308.96-178.432 464.672-268.416z" />
<glyph unicode="&#xe905;" glyph-name="dl_ios" d="M898.24 615.072c-152.32-109.44-143.008-316.96 28.256-408.16-32.032-92.672-79.232-176.224-153.952-241.472-38.336-33.344-86.464-36.288-130.56-15.008-75.904 36.544-148.448 35.744-223.808-0.672-49.664-24-99.328-16.928-137.632 23.456-140.832 148.704-210.656 323.168-172.96 528.96 23.872 130.816 136.896 217.568 260.288 207.328 30.72-2.592 62.144-12.64 90.272-25.76 42.24-19.744 80.864-17.536 121.984 1.632 68.544 31.968 139.2 41.44 211.904 12.864 42.848-16.768 79.040-41.76 106.208-83.168zM710.24 960c21.792-112.544-88.64-240.832-196.64-228.48-19.232 93.28 79.2 225.28 196.64 228.48z" />
<glyph unicode="&#xe906;" glyph-name="fullscreen" d="M363.456 960c27.136-23.616 27.808-37.344 2.432-62.88-34.72-34.944-69.728-69.6-106.56-106.336 50.72-50.592 100-99.68 149.248-148.864 52.512-52.448 52.48-52.48-0.8-105.76-32.192-32.224-42.144-32.16-75.040 0.8-53.504 53.632-106.944 107.36-163.072 163.744-27.68-27.648-54.496-54.4-81.312-81.184-8.448-8.448-16.8-16.928-25.312-25.28-25.728-25.152-39.008-24.64-63.040 2.368v363.392h363.456zM1003.36 960c6.816-14.464 19.296-28.832 19.552-43.424 1.728-98.88 0.736-197.824 1.024-296.704 0.032-17.184-1.952-32.64-19.744-40.608-18.336-8.224-30.688 1.92-42.624 13.984-34.72 35.136-69.664 70.048-109.024 109.696-19.36-20.96-37.216-41.184-56.064-60.384-37.664-38.304-75.776-76.16-113.984-113.984-21.824-21.568-36.864-21.408-58.784-0.096-11.008 10.688-21.92 21.536-32.544 32.576-20.064 20.832-20.256 36.384 0.16 56.96 52.864 53.248 106.048 106.24 159.232 159.2 3.616 3.584 8.256 6.144 15.616 11.52-25.792 25.792-48.96 48.96-72.16 72.16-12.064 12.064-24.224 24.032-36.16 36.192-25.28 25.728-24.736 39.36 2.56 62.912h342.944zM0 299.744c23.808 27.168 37.344 27.776 63.008 2.432 33.952-33.6 67.712-67.36 101.6-101.024 1.12-1.088 2.976-1.408 6.752-3.104 52.288 52.352 105.216 105.248 158.080 158.176 6.016 6.048 11.744 12.48 18.208 17.984 18.080 15.36 35.168 14.4 54.592-9.344 18.72-22.848 63.616-36.032 36.16-79.936-4.416-7.040-11.776-12.224-17.824-18.24-53.088-52.928-106.208-105.824-161.6-160.96 35.616-35.392 69.92-69.568 104.288-103.616 12.928-12.768 26.88-25.216 17.632-46.176-9.088-20.576-27.456-19.648-45.76-19.616-96.384 0.128-192.768 0.48-289.12-0.32-19.584-0.16-35.072 4.256-46.016 20.832v342.912zM764.544 105.376c-56.096 56.032-110.208 110.144-164.384 164.288-32.768 32.768-32.736 42.112 0.224 75.136 52.672 52.672 52.704 52.672 105.952-0.544 48.768-48.8 97.536-97.6 148.544-148.608 35.232 35.488 69.408 69.76 103.456 104.16 12.8 12.96 25.344 26.72 46.24 17.312 19.168-8.672 19.424-25.728 19.36-43.36-0.224-97.216-0.064-194.464-0.128-291.68-0.032-35.904-9.568-45.664-45.12-45.696-98.080-0.096-196.224 0.16-294.272-0.192-18.176-0.064-34.72 1.92-42.304 21.184-7.232 18.368 3.84 30.528 15.84 42.304 35.168 34.56 70.048 69.376 106.592 105.696z" />
<glyph unicode="&#xe907;" glyph-name="gotop" d="M142.272 191.872l369.728 369.792 369.664-369.792h142.336l-512 512.192-512-512.192z" />
<glyph unicode="&#xe908;" glyph-name="icon-face" d="M896 960h-768c-70.688 0-128-57.312-128-128v-768c0-70.688 57.312-128 128-128h453.456c0.016 0.336 0.048 0.672 0.048 1.040-0.128 123.328-0.128 246.672 0 370.016 0 4.656-1.312 6.080-6.064 6.048-38.784-0.192-77.568 0.016-116.336-0.16-4.736-0.016-6.448 1.072-6.432 6.224 0.208 46.128 0.112 92.448 0.128 138.56 0 1.808 0.16 6.272 0.256 6.272 2.512 0 4.528 0 6.544 0 38.432 0 76.864-0.272 115.312-0.496 5.28-0.032 6.624 1.040 6.608 6.192-0.224 32.976-0.224 65.936-0.080 98.912 0.096 21.872 1.6 43.616 6.784 64.976 10.128 41.712 30.448 76.928 65.776 102.336 32.816 23.6 70.192 33.632 110.048 34.624 39.952 0.992 79.856-0.8 119.664-4.88 4.224-0.432 6.4-1.056 6.384-6.096-0.208-41.168-0.16-82.336-0.032-123.504 0.016-4.176-1.12-5.584-5.456-5.552-22.368 0.192-44.768 0.432-67.12-0.032-12.064-0.256-24.272-0.928-36.112-3.088-19.856-3.632-34.48-14.528-40.288-34.72-1.952-6.816-3.488-13.968-3.6-21.008-0.512-34.336-0.432-68.576-0.752-102.896-0.048-4.416 1.664-5.2 5.744-5.184 45.104 0.080 90.208 0.416 135.296 0.416 2.016 0 4 0 6.736 0-0.752-16-1.344-12.224-2.032-17.632-2.928-22.624-5.888-45.648-8.8-68.288-2.56-19.76-5.216-39.536-7.552-59.328-0.56-4.768-2.576-5.936-7.248-5.92-38.768 0.208-77.648 0.048-116.4 0.208-4.416 0.016-6.112-1.12-6.112-5.68 0.096-123.52-0.368-247.024-0.368-370.528 0-0.288 0-0.56 0-0.832h160c70.688 0 128 57.312 128 128v768c0 70.688-57.312 128-128 128z" />
<glyph unicode="&#xe909;" glyph-name="icon-insta" d="M0.448 447.584c0 82.896-0.176 165.776 0.064 248.656 0.128 41.872 1.568 83.856 18 123.184 32.752 78.432 91.968 123.808 175.872 135.84 24.784 3.552 50.112 4.4 75.2 4.448 161.52 0.384 323.024 0.336 484.56 0.096 41.456-0.064 83.264-0.624 122.576-15.744 83.472-32.096 130.848-93.552 143.024-181.904 2.32-16.768 2.896-33.872 2.96-50.832 0.608-169.664 1.040-339.328 1.28-508.992 0.048-41.152-1.552-82.416-16.8-121.28-30.176-76.912-86.064-123.984-167.664-138.48-23.904-4.24-48.56-5.936-72.88-6.016-170.368-0.592-340.752-0.592-511.12-0.432-43.072 0.048-85.92 3.872-125.424 22.688-68.24 32.48-110.48 86.128-123.264 160.896-4.624 27.056-6.144 54.912-6.416 82.416-0.768 81.808-0.256 163.632-0.256 245.456 0.096 0 0.192 0 0.288 0zM892.32 447.872c0 46.048 0.192 92.096-0.112 138.144-0.096 13.424-0.464 27.008-2.592 40.224-19.2 119.392-115.68 201.52-236.752 201.728-93.856 0.176-187.728 0.288-281.6-0.192-17.232-0.080-34.816-1.552-51.648-5.136-110.848-23.648-187.104-117.76-187.616-231.408-0.416-95.648-0.176-191.28 0.016-286.912 0.032-11.664 0.704-23.44 2.56-34.928 19.184-119.264 115.728-201.504 236.768-201.744 93.872-0.176 187.744-0.288 281.6 0.208 17.248 0.080 34.816 1.552 51.648 5.136 110.848 23.664 186.8 117.616 187.648 231.44 0.352 47.808 0.064 95.632 0.080 143.44zM826.464 447.12c0-46.736 0.080-93.504-0.016-140.256-0.192-99.024-74.368-173.248-173.456-173.36-93.856-0.128-187.712-0.112-281.568-0.016-99.648 0.128-173.584 74.336-173.648 174.256-0.064 93.504-0.064 187.008 0 280.512 0.080 99.728 74.192 173.824 173.968 173.904 93.504 0.064 187.008 0.064 280.512 0 99.888-0.080 174.032-74.032 174.192-173.712 0.080-47.12 0.016-94.224 0.016-141.328zM701.184 448.208c-0.144 103.456-85.392 188.608-188.912 188.672-103.984 0.064-189.392-85.408-189.248-189.424 0.144-103.504 85.392-188.672 188.864-188.72 103.888-0.048 189.44 85.584 189.296 189.472zM672.832 654.24c0.112-25.504 21.216-46.656 46.624-46.736 25.152-0.080 46.608 21.328 46.784 46.72 0.192 25.952-21.136 47.104-47.296 46.912-25.632-0.192-46.24-21.152-46.112-46.896zM635.232 446.768c-0.384-67.632-55.952-122.384-123.872-122.064-68.16 0.304-122.96 56.144-122.352 124.656 0.608 67.584 56.416 122.144 124.368 121.584 67.6-0.592 122.256-56.272 121.856-124.176z" />
<glyph unicode="&#xe90a;" glyph-name="icon-talktv" d="M896 960h-768c-70.688 0-128-57.312-128-128v-768c0-70.688 57.312-128 128-128h768c70.688 0 128 57.312 128 128v768c0 70.688-57.312 128-128 128zM408.992 576.032c0.464 36.816 21.568 49.216 53.664 30.928 66.048-37.632 131.808-75.76 197.392-114.208 27.808-16.304 28.864-41.936 1.488-58.24-67.28-40.112-135.008-79.52-203.248-117.92-26.832-15.12-48.384-2.048-49.152 28.832-0.992 39.584-0.24 79.184-0.24 118.8 0.016 37.264-0.368 74.544 0.096 111.808zM958.528 352.336c-2.096-46-37.472-81.808-83.712-86.32-11.088-1.888-22.096-1.152-32.992 1.44-15.952-16.992-33.232-32.496-54-43.44-20.064-10.528-40.128-18.464-50.656-42.832-8.496-19.584-36.816-21.728-55.008-9.424-18.4 12.528-24.176 35.84-13.648 55.408 9.92 18.464 33.984 26.496 54.352 18.176 22.72-9.344 71.376 9.792 82.88 31.808 3.872 7.44-1.648 9.52-4.784 13.36-7.776 9.504-17.344 17.872-19.52 30.96-11.232 17.36-8.864 36.928-8.784 56.016 0.064 25.376-1.376 51.088 2.112 76.064 3.104 22.176 13.888 42.32 34.784 54.592 8.912 9.456 19.536 15.488 32.688 16.64 2.352 0.528 4.752 1.056 7.136 1.6-3.664 46.944-26.208 85.984-55.552 120.288-92.992 108.736-213.248 146.496-351.984 125.264-105.776-16.176-191.44-68.016-247.536-161.44-46.288-77.184-53.28-157.712-13.472-240.432 14.848-30.88 30.672-61.168 49.904-89.536 7.584-11.168 8.912-21.84 5.632-35.056-12.032-48.512-39.424-83.632-85.76-103.536-5.456-2.336-12.416-2.752-15.84-9.904 14.576-10.128 31.584-11.312 48.24-13.104 44.784-4.912 88.608-0.096 130.736 15.904 12.944 4.912 28.496 10.096 36.176 20.256 20.944 27.6 41.264 22.944 69.328 10.784 46.32-20.032 95.696-17.328 144.304-5.232 7.568 1.872 15.008 4.208 22.336 6.72 10.672 3.664 20.864 4.112 25.28-8.24 4.784-13.312-3.376-20.128-15.2-23.936-62.352-20.336-125.072-24.48-187.44-1.28-15.072 5.632-24.24 3.184-37.232-6.064-57.504-40.88-123.584-47.44-191.584-42.336-22.48 1.664-44.656 5.968-64.592 17.968-13.056 7.856-21.168 18.256-20.144 34.064 1.040 16.336 11.392 24.992 25.888 29.2 35.664 10.352 61.92 31.184 76.752 65.936 6.64 15.584 6.416 29.072-3.456 43.76-22.624 33.648-41.504 69.584-55.056 107.744-41.6 117.184-7.504 218.496 73.104 304.896 165.52 177.36 470.512 159.792 617.152-33.28 23.728-31.248 41.584-65.84 50.896-104.032 4-16.352 11.008-26.016 27.008-33.6 30.64-14.528 48.736-40 50.496-75.152 0.096-7.888 0.192-15.76 0.272-23.648 0.224-22.368 1.536-44.736 0.496-67.024z" />
<glyph unicode="&#xe90b;" glyph-name="icon-twit" d="M896 960h-768c-70.688 0-128-57.312-128-128v-768c0-70.688 57.312-128 128-128h768c70.688 0 128 57.312 128 128v768c0 70.688-57.312 128-128 128zM889.312 652.624c-8.672-7.888-17.776-15.344-27.088-22.496-4.688-3.616-6.528-7.44-6.288-13.424 2.064-50.976-4.624-100.992-18.336-149.952-11.76-41.904-28.512-81.808-50.112-119.744-23.344-40.976-51.472-78.176-84.928-111.328-45.312-44.88-97.552-79.44-156.688-103.328-55.76-22.528-113.856-34.224-173.92-36.304-42.192-1.44-84.096 1.248-125.36 10.112-41.648 8.944-81.952 22.112-119.872 41.84-15.68 8.144-31.152 16.672-46.72 25.024 0.272 0.608 0.544 1.232 0.816 1.84 95.28-8.736 181.28 14.832 257.424 73.44-37.28 2.544-71.008 14.096-100.8 36.368-29.632 22.176-50.144 51.008-61.952 85.216 12.992 0 25.728-0.544 38.384 0.176 12.416 0.672 24.784 2.64 37.216 5.2-51.056 14.080-90.448 42.56-116.368 88.64-15.664 27.888-24.4 63.392-21.856 86.96 12.416-4.656 24.56-10.144 37.232-13.664 12.736-3.536 26.032-5.088 39.184-6.752-78.016 65.824-95.12 144.272-52.704 238.032 97.2-114.096 218.624-176.512 367.264-186.72-1.152 11.328-2.656 21.536-3.136 31.792-2.608 55.2 16.336 102.080 56.784 139.472 44.448 41.104 97.584 54.656 156.56 43.616 34.064-6.384 63.824-22.448 88.336-47.328 3.616-3.664 6.864-4.768 12.16-3.552 33.232 7.68 65.088 18.88 94.88 35.696 2.96 1.664 6.112 2.992 10.848 5.264-13.808-41.456-38.864-72.048-73.264-95.872 33.408 2.608 64.768 12.48 96.992 25.728-16.432-24.704-34.336-45.408-54.688-63.952z" />
<glyph unicode="&#xe90c;" glyph-name="icon-yout" d="M432 341.328c64 37.776 150.912 74.928 228.336 113.344-77.824 39.456-164.336 77.344-228.336 115.776 0-77.248 0-152.224 0-229.12zM896 960h-768c-70.688 0-128-57.312-128-128v-768c0-70.688 57.312-128 128-128h768c70.688 0 128 57.312 128 128v768c0 70.688-57.312 128-128 128zM940.896 317.664c-0.672-21.872-4.16-44-9.296-65.312-13.664-56.56-52.912-90.048-113.328-92.24-116.528-4.224-233.152-7.232-349.76-7.984-80.112-0.528-160.256 3.408-240.352 5.872-14.768 0.448-29.664 2.432-44.128 5.472-52.32 11.008-83.312 45.28-91.712 96.112-7.664 46.368-10.88 93.824-11.904 140.912-1.28 58.48 0.768 117.088 3.328 175.552 1.040 23.616 4.928 47.664 11.504 70.336 15.264 52.752 52.144 82.96 106.544 87.12 61.888 4.768 124.048 6.512 186.128 8.336 41.408 1.216 82.896 0.24 124.336 0.24 0 0.608 0.016 1.216 0.016 1.824 79.712-1.616 159.408-2.656 239.088-5.088 29.6-0.928 59.424-3.184 88.56-8.24 48.32-8.368 80.272-38.704 89.84-85.92 8.608-42.48 12.688-86.4 13.712-129.808 1.552-65.68-0.56-131.472-2.576-197.184z" />
<glyph unicode="&#xe90d;" glyph-name="less" d="M768.128 960l-512.256-512 512.256-512v142.336l-369.856 369.664 369.856 369.728z" />
<glyph unicode="&#xe90e;" glyph-name="mn_expand" d="M881.728 704.064l-369.728-369.792-369.664 369.792h-142.336l512-512.192 512 512.192z" />
<glyph unicode="&#xe90f;" glyph-name="more" d="M255.936 817.728l369.792-369.728-369.792-369.664v-142.336l512.192 512-512.192 512z" />
<glyph unicode="&#xe910;" glyph-name="q_a" d="M496 865.76c4.8-0.64 9.632-1.184 14.4-1.952 30.24-4.96 56.16-18.496 77.888-40.032 4.096-4.064 7.744-8.64 11.584-12.96 0.544-0.64 0.928-1.344 1.696-2.4h-3.392c-51.392 0-102.816 0.352-154.208-0.16-52.288-0.512-99.136-17.376-140.032-49.92-41.856-33.312-68.896-76.288-81.344-128.32-4.256-17.76-6.016-35.808-6.016-54.080 0.064-46.88 0-93.76 0.064-140.672 0-1.888-0.48-3.328-1.792-4.768-42.048-46.624-84-93.248-126.016-139.904-0.512-0.576-1.056-1.088-2.080-2.208v3.52c0 50.016-0.032 100.096 0.032 150.112 0 2.272-0.672 3.392-2.752 4.416-43.232 20.928-70.432 54.72-80.96 101.632-1.376 6.112-1.792 12.48-2.688 18.72-0.064 0.768-0.256 1.536-0.384 2.272v161.408c0.384 3.2 0.704 6.432 1.152 9.6 4.032 30.048 16.032 56.48 36.512 78.816 22.368 24.384 49.984 39.392 82.688 44.864 5.12 0.864 10.272 1.344 15.424 1.984h360.224zM918.848 30.24c-11.392 12.832-22.784 25.664-34.176 38.496-38.816 43.744-77.632 87.52-116.416 131.328-1.216 1.408-2.496 1.472-4.064 1.472-46.528 0-93.088 0-139.616 0h-179.328c-81.568 0-153.248 58.56-169.44 138.464-2.4 11.872-3.584 23.808-3.584 35.872 0 66.624-0.032 133.248 0 199.84 0.064 69.6 39.968 130.848 103.584 159.040 22.112 9.824 45.408 14.624 69.6 14.656 136.224 0 272.416 0.256 408.64-0.096 78.208-0.224 147.168-55.744 165.12-131.84 3.040-12.736 4.736-25.664 4.736-38.784 0-69.024 0.288-138.016-0.128-207.040-0.224-37.216-12.256-70.816-34.496-100.672-17.568-23.488-39.776-41.376-66.464-53.568-2.496-1.12-3.424-2.4-3.424-5.28 0.096-59.488 0.064-119.040 0.064-178.56v-3.232c-0.192-0.032-0.416-0.064-0.608-0.096zM686.88 366.688v3.36c0 16.416-0.096 32.8 0.032 49.216 0.032 4 0.32 8.032 1.12 11.936 2.688 12.736 10.592 21.984 21.024 29.152 8.448 5.792 17.248 11.040 25.664 16.864 11.68 8.064 21.92 17.728 29.792 29.632 17.856 26.848 21.312 56.224 12.384 86.56-12.8 43.392-42.688 70.944-84.928 85.184-19.104 6.432-39.104 6.848-59.072 5.28-31.744-2.528-58.88-14.88-80.576-38.656-15.264-16.736-26.944-35.36-32.032-57.696-4.032-17.664-4.864-35.648-5.28-53.664-0.064-3.040 0-6.112 0-9.248h69.856c0 4.64 0 9.088 0 13.504 0.064 10.336 0.256 20.672 2.336 30.848 3.36 16.448 11.584 29.376 26.848 37.216 8.48 4.32 17.472 6.784 26.912 7.712 16.448 1.632 31.968-1.28 46.144-10.016 7.712-4.768 13.856-10.976 17.056-19.744 7.424-20.128 0.224-42.752-17.664-54.912-13.824-9.408-27.648-18.816-41.472-28.224-8.128-5.536-15.328-12-20.544-20.448-6.624-10.688-8.48-22.56-8.512-34.848 0-25.6 0-51.232 0-76.832v-2.944c23.808 0.192 47.168 0.48 70.912 0.768zM616.224 338.752v-72.416h2.688c21.696 0 43.328 0.032 65.024-0.064 2.368 0 2.976 0.672 2.976 3.008-0.096 22.272-0.032 44.576-0.032 66.848v2.624h-70.656z" />
<glyph unicode="&#xe911;" glyph-name="scroll" d="M491.52 99.84c-124.232 0-225.28 101.089-225.28 225.28v204.8c0 124.232 101.048 225.28 225.28 225.28 124.191 0 225.28-101.048 225.28-225.28v-204.8c0-124.191-101.089-225.28-225.28-225.28zM491.52 714.24c-101.622 0-184.32-82.698-184.32-184.32v-204.8c0-101.581 82.698-184.32 184.32-184.32 101.581 0 184.32 82.739 184.32 184.32v204.8c0 101.622-82.739 184.32-184.32 184.32zM491.52 488.96c-11.305 0-20.48 9.175-20.48 20.48v122.88c0 11.305 9.175 20.48 20.48 20.48s20.48-9.175 20.48-20.48v-122.88c0-11.305-9.175-20.48-20.48-20.48zM384 837.12l107.52 107.52 107.52-107.52zM599.040 58.88l-107.52-107.52-107.52 107.52z" />
<glyph unicode="&#xe912;" glyph-name="search" d="M1024 65.696v-18.176c-25.984-46.816-62.112-83.488-109.216-109.248h-18.208c-81.664 83.072-163.36 166.016-244.512 248.512-8.672-5.248-12.544-7.616-16.416-9.952-218.016-131.552-503.040-39.872-600.736 195.2-17.152 41.216-23.52 86.912-34.912 130.592v68.256c1.312 5.76 3.040 11.424 3.904 17.216 23.424 161.696 110.24 275.584 260.672 338.336 38.464 16 81.376 21.152 122.272 31.296h68.256c4.256-1.312 8.448-3.264 12.768-3.744 114.72-13.504 209.856-64.96 279.104-156.448 109.984-145.344 120.8-301.792 38.304-464.096-7.392-14.56-5.888-21.888 5.28-32.256 22.784-21.056 44.256-43.552 66.080-65.696 55.84-56.544 111.584-113.184 167.36-169.792zM420.128 818.112c-154.24 0.576-280.416-124.192-282.176-279.072-1.76-154.24 124.896-282.24 280.256-283.104 153.984-0.928 280.832 124.64 281.92 279.008 1.056 155.424-124.704 282.624-280 283.168z" />
<glyph unicode="&#xe913;" glyph-name="share" d="M570.080 825.6c-45.104-44.368-82.016-82-120.72-117.664-8.128-7.488-22.848-10.864-34.576-10.976-93.52-0.864-187.040-0.464-283.104-0.464 0-171.472 0-341.744 0-514.24 212.704 0 426.064 0 643.904 0-12.864 39.68 15.968 57.232 40.592 77.68 27.728 23.024 54.864 46.832 86.4 73.84 0-82.112 0.928-158.016-0.448-233.888-0.544-30.416-20.256-46.048-50.24-48.112-10.72-0.752-21.504-0.816-32.256-0.816-245.2-0.032-490.432-0.080-735.648 0-71.424 0.032-83.936 12.72-83.952 84.928-0.064 202.192-0.080 404.384 0 606.592 0.032 68.56 14.512 83.008 83.36 83.056 149.52 0.128 299.008 0.064 448.528 0.064 9.312 0 18.64 0 38.16 0zM773.424 845.072c86.592-86.576 169.84-169.824 250.576-250.544-81.232-81.184-164.576-164.496-247.664-247.552 0 43.344 0 91.568 0 142.224-157.408 22.224-280.24-34.736-383.232-144.912-16.928 63.648 35.92 202.976 102.96 272.656 60.512 62.88 116.752 84.816 277.344 107.536 0.016 39.024 0.016 78.448 0.016 120.592z" />
<glyph unicode="&#xe914;" glyph-name="signin" d="M0-38c0 13.344 0 26.656 0 40 0.672 2.864 1.568 5.68 1.984 8.592 7.248 51.312 28.176 95.232 71.664 125.312 22.624 15.632 46.288 30.576 71.296 41.76 43.952 19.664 89.6 35.552 133.92 54.432 18.16 7.744 35.344 18.32 51.872 29.28 15.28 10.144 22.384 26.16 23.232 44.384 1.008 21.936 1.168 43.904 2.112 65.84 0.544 12.816-3.088 23.52-10.544 34.256-20.144 28.976-39.808 58.496-44.48 94.816-2.080 16.16-3.92 32.368-5.232 48.608-0.528 6.448-3.168 10.432-7.616 15.12-10.624 11.216-24.288 22.304-28.688 36.016-7.408 23.056-10.288 48.016-11.856 72.368-1.312 20.416 5.424 25.040 26.416 25.776 0.56 0.016 1.088 0.608 2.416 1.376 0 3.824-0.128 8.096 0.016 12.368 1.104 30.208-1.104 61.008 4.064 90.512 13.312 75.984 56.112 128.048 132.512 148.672 14.672 3.968 29.92 5.696 44.896 8.464 16 0 32 0 48 0 8.192-1.296 16.384-2.512 24.56-3.888 74.032-12.512 123.776-53.504 147.536-125.328 11.408-34.528 12.032-69.984 10.32-105.76-0.432-8.8-0.064-17.648-0.064-26.384 23.952-0.448 29.68-6.064 29.536-28.736-0.064-9.632-0.992-19.296-2.032-28.88-3.44-31.936-13.632-60.32-41.712-79.52-2.544-1.744-4.080-6.624-4.16-10.096-1.312-53.184-16.336-101.6-49.056-144.048-2.848-3.68-5.536-7.536-7.872-11.552-1.472-2.464-2.944-5.408-3.024-8.16-0.576-18.656-1.28-37.312-0.88-55.936 0.16-7.472-1.328-13.040-6.032-18.992-68.72-86.752-78.288-203.232-25.088-300.304 16.032-29.216 37.68-53.84 61.984-76.368-204 0-408 0-612 0-1.808 0.608-3.584 1.472-5.44 1.776-16.208 2.656-17.776 4.224-20.976 20.768-0.24 1.2-1.040 2.304-1.584 3.456zM796-64c-12.304 2.656-24.784 4.704-36.88 8.080-93.152 25.92-155.616 113.6-150.912 211.488 4.528 94.56 75.76 175.6 169.456 192.752 118.24 21.632 228.928-58.8 244.512-177.648 0.288-2.272 1.184-4.448 1.808-6.672 0-13.344 0-26.656 0-40-0.624-2.224-1.536-4.4-1.808-6.656-11.056-83.696-69.888-151.44-151.296-173.744-11.472-3.136-23.248-5.088-34.896-7.6-13.328 0-26.64 0-39.984 0zM768 192c-26.784 0-52.096 0.080-77.408-0.032-12.496-0.064-18.464-5.936-18.544-18.288-0.144-19.664-0.128-39.344 0.032-59.008 0.096-12.944 6.016-18.624 19.2-18.656 22.32-0.064 44.656-0.016 66.992-0.016 3.136 0 6.304 0 9.728 0 0-26.624-0.064-51.616 0.032-76.592 0.064-13.632 5.84-19.312 19.552-19.376 17.664-0.096 35.328-0.032 52.992 0 19.088 0.032 23.376 4.336 23.408 23.536 0.016 23.872 0 47.744 0 72.464 26.752 0 52.336-0.096 77.92 0.032 11.808 0.064 17.936 6.128 18.048 17.808 0.176 20 0.192 40 0.016 60-0.112 12.208-6.208 18-18.8 18.096-19.008 0.128-38.016 0.032-57.008 0.032-6.528 0-13.056 0-20.192 0 0 25.28-0.016 49.216 0 73.184 0.032 18.208-4.528 22.752-23.104 22.8-17.328 0.048-34.656 0.048-51.984 0.016-15.648-0.048-20.848-5.296-20.88-21.056-0.032-24.608 0-49.2 0-74.944z" />
<glyph unicode="&#xe915;" glyph-name="sl-next" d="M398.146 654.469l219.174-219.136-219.174-219.022v-84.385l303.559 303.445-303.559 303.369zM322.37-32.408c-41.832 0-75.852 33.982-75.852 75.852v802.778c0 41.832 34.020 75.852 75.852 75.852h379.259c41.87 0 75.852-34.020 75.852-75.852v-802.778c0-41.87-33.982-75.852-75.852-75.852h-379.259zM322.37-70.334h379.259c62.843 0 113.778 50.972 113.778 113.778v802.778c0 62.843-50.972 113.778-113.778 113.778h-379.259c-62.843 0-113.778-50.935-113.778-113.778v-802.778c0-62.843 50.935-113.778 113.778-113.778v0z" />
<glyph unicode="&#xe916;" glyph-name="sl-prev" d="M625.854 235.198l-219.174 219.136 219.174 219.022v84.385l-303.559-303.407 303.559-303.407zM701.63 922.074c41.832 0 75.852-34.020 75.852-75.852v-802.778c0-41.832-34.020-75.852-75.852-75.852h-379.259c-41.832 0-75.852 34.020-75.852 75.852v802.778c0 41.832 34.020 75.852 75.852 75.852h379.259zM701.63 960h-379.259c-62.843 0-113.778-50.935-113.778-113.778v-802.778c0-62.843 50.935-113.778 113.778-113.778h379.259c62.843 0 113.778 50.935 113.778 113.778v802.778c0 62.843-50.935 113.778-113.778 113.778v0z" />
<glyph unicode="&#xe917;" glyph-name="video-play" d="M512 944c273.504 0 496-222.512 496-496 0-273.504-222.496-496-496-496-273.488 0-496 222.496-496 496 0 273.488 222.512 496 496 496zM512 960c-282.768 0-512-229.232-512-512s229.232-512 512-512 512 229.232 512 512-229.232 512-512 512v0zM427.264 266.912c-13.056 0.928-22.88 10.88-23.472 25.536-0.608 15.584-0.432 31.184-0.528 46.736-0.416 84.048-0.784 168.064-1.168 252 0 3.184-0.016 6.384 0.112 9.504 1.168 25.568 18.8 35.52 40.928 23.104 9.792-5.504 19.408-11.328 29.088-17.008 58.96-34.768 117.92-69.584 176.896-104.4 17.392-10.256 34.752-20.32 51.744-31.072 22.72-14.288 22.784-34.768-0.288-48.736-32.912-19.92-66.224-39.008-99.408-58.448-43.040-25.2-86.112-50.448-129.216-75.616-10.384-6.096-20.816-12.096-31.488-17.6-3.968-2.064-8.752-2.688-13.2-4z" />
</font>
</defs>
</svg>
